<svg width="80" height="140" viewBox="0 0 80 140" fill="none" xmlns="http://www.w3.org/2000/svg">
<path fill-rule="evenodd" clip-rule="evenodd" d="M44.3525 43.6749H43.5943C44.0495 44.05 44.3263 44.5453 44.3263 45.0883C44.3263 45.8098 43.8377 46.4471 43.0913 46.83C43.4069 47.0893 43.6076 47.4792 43.6076 47.9152L43.6076 117.88C43.6076 119.051 42.6423 120 41.4516 120C40.2608 120 39.2956 119.051 39.2956 117.88V113.739C39.1777 113.785 39.0426 113.792 38.9091 113.748C38.7055 113.682 38.481 113.734 38.3293 113.883L37.35 114.846C37.2152 114.979 37.0324 115.053 36.8418 115.053H35.2812C35.0906 115.053 34.9078 115.127 34.773 115.26L34.116 115.906C33.9812 116.039 33.7984 116.113 33.6078 116.113H30.6714C30.2745 116.113 29.9527 115.797 29.9527 115.406V114.639C29.9527 114.452 29.877 114.272 29.7422 114.139L29.0852 113.493C28.9504 113.361 28.7676 113.286 28.577 113.286H27.9764C27.6787 113.286 27.4374 113.049 27.4374 112.756C27.4374 112.463 27.196 112.226 26.8983 112.226H26.7187C26.3218 112.226 26 111.91 26 111.519V110.813C26 110.422 26.3218 110.106 26.7187 110.106H27.9864C28.098 110.106 28.208 110.08 28.3078 110.031L28.723 109.827C28.8228 109.778 28.9328 109.753 29.0444 109.753H31.4517C31.6423 109.753 31.8251 109.678 31.9599 109.546L32.2642 109.246C32.3948 109.118 32.4681 108.944 32.4681 108.762C32.4681 108.503 32.3191 108.266 32.0832 108.15L31.9012 108.061C31.8014 108.011 31.6913 107.986 31.5798 107.986H29.0444C28.9328 107.986 28.8228 107.96 28.723 107.911L28.3078 107.707C28.208 107.658 28.0979 107.633 27.9864 107.633H26.7187C26.3218 107.633 26 107.316 26 106.926V106.219C26 105.829 26.3218 105.512 26.7187 105.512C27.1156 105.512 27.4374 105.196 27.4374 104.806V104.651C27.4374 104.326 27.6618 104.044 27.9817 103.965L28.7539 103.775C28.8339 103.756 28.9098 103.723 28.9783 103.678L29.6327 103.249C29.8326 103.118 29.9527 102.897 29.9527 102.661V101.917C29.9527 101.552 30.2362 101.247 30.6063 101.214L33.4562 100.959C33.7309 100.934 33.9956 101.067 34.1376 101.299L34.7741 102.342C34.904 102.555 35.1379 102.686 35.3904 102.686H36.9C37.0555 102.686 37.2068 102.735 37.3312 102.827L38.2276 103.488C38.4416 103.646 38.7075 103.677 38.9557 103.579C39.0754 103.531 39.1925 103.529 39.2956 103.561L39.2956 47.9152C39.2956 47.4792 39.4963 47.0893 39.8119 46.83C39.0655 46.4471 38.5769 45.8098 38.5769 45.0883C38.5769 44.5453 38.8537 44.05 39.3089 43.6749H38.5507C38.3316 43.6749 38.1155 43.6248 37.9196 43.5284L37.8193 43.4791C37.6113 43.3768 37.4426 43.211 37.3386 43.0064C37.2111 42.7557 36.9876 42.565 36.7171 42.4764L36.2828 42.334C36.1362 42.286 35.9985 42.215 35.8749 42.1239L34.8211 41.3467C34.6907 41.2505 34.578 41.1333 34.4876 41L34.1408 40.4884C33.9953 40.2738 33.9779 39.999 34.0952 39.7682L34.142 39.6761C34.3635 39.2405 34.0414 38.7279 33.5461 38.7279H32.8074C32.5843 38.7279 32.3642 38.6768 32.1646 38.5787L32.0908 38.5424C31.8671 38.4324 31.6764 38.2669 31.5377 38.0622L31.2722 37.6706C31.1147 37.4384 31.0307 37.1656 31.0307 36.8865V36.4838C31.0307 36.3319 31.0557 36.1809 31.1045 36.0368L31.1519 35.8969C31.3011 35.4569 31.2212 34.9729 30.9382 34.6019L30.4261 33.9305C30.3504 33.8312 30.2883 33.7226 30.2415 33.6073L29.6424 32.1346C29.6098 32.0545 29.5847 31.9715 29.5675 31.8869L29.262 30.3846C29.2434 30.2933 29.234 30.2005 29.234 30.1074V28.6546C29.234 28.539 29.2485 28.4239 29.277 28.3118L29.5505 27.2359C29.579 27.1238 29.5934 27.0087 29.5934 26.8931V26.0568C29.5934 25.5842 29.8336 25.1429 30.2334 24.8808L30.553 24.6713C30.6317 24.6196 30.7051 24.5605 30.772 24.4947L30.9691 24.3009C31.2387 24.0358 31.6042 23.8869 31.9855 23.8869H32.5144C32.7203 23.8869 32.9233 23.8398 33.1074 23.7493C33.3905 23.6101 33.7149 23.5751 34.022 23.6506L34.2754 23.7129C34.7204 23.8223 35.1918 23.7162 35.5442 23.4275L36.9312 22.2909C37.0689 22.178 37.2268 22.0915 37.3968 22.0358L38.0349 21.8266C38.1561 21.7869 38.2714 21.7315 38.3777 21.6618L39.1771 21.1377C39.2559 21.0861 39.3293 21.0269 39.3962 20.9611L39.7601 20.6032C39.9228 20.4432 40.1435 20.3534 40.3736 20.3534H40.4788C40.6415 20.3534 40.7975 20.2898 40.9126 20.1767C41.0276 20.0636 41.1836 20 41.3463 20H41.55C41.7216 20 41.8908 20.0393 42.0443 20.1147L42.4129 20.296C42.4897 20.3337 42.5743 20.3534 42.6601 20.3534C42.8066 20.3534 42.9472 20.4106 43.0508 20.5125L43.3535 20.8102C43.5162 20.9702 43.7369 21.0601 43.967 21.0601C44.197 21.0601 44.4177 21.1499 44.5804 21.3099L44.8051 21.5308C44.9628 21.686 45.1552 21.8029 45.3669 21.8723L45.8011 22.0146C46.0128 22.084 46.2051 22.2009 46.3629 22.3561L47.5589 23.5321C47.7744 23.744 48.1035 23.7965 48.3761 23.6625C48.544 23.58 48.7384 23.5664 48.9166 23.6248L49.4951 23.8144C49.6417 23.8624 49.7952 23.8869 49.9496 23.8869H50.5584C50.9396 23.8869 51.3052 24.0358 51.5747 24.3009L51.7718 24.4947C51.8387 24.5605 51.9121 24.6196 51.9909 24.6713L52.3104 24.8808C52.7103 25.1429 52.9504 25.5842 52.9504 26.0568V26.7335C52.9504 26.9529 53.0024 27.1693 53.1022 27.3656L53.583 28.3113C53.6402 28.4236 53.6818 28.543 53.7069 28.6662L53.9721 29.9702C54.0093 30.1531 54.0093 30.3416 53.9721 30.5245L53.695 31.8869C53.6778 31.9715 53.6527 32.0545 53.6201 32.1346L53.0211 33.6073C52.9742 33.7226 52.9121 33.8312 52.8364 33.9305L52.1599 34.8174C51.9733 35.0621 51.8724 35.3597 51.8724 35.6655V36.8865C51.8724 37.1656 51.7884 37.4384 51.631 37.6706L51.462 37.9199C51.2637 38.2125 50.9615 38.4218 50.6147 38.5071L49.8081 38.7054C49.7472 38.7203 49.6846 38.7279 49.6219 38.7279C49.1223 38.7279 48.7557 39.1896 48.8769 39.6662L48.9311 39.8795C48.9746 40.0505 48.9676 40.2302 48.9109 40.3974L48.7804 40.7825C48.6879 41.0553 48.5131 41.2938 48.2792 41.4663L47.4332 42.0902C47.28 42.2033 47.1053 42.285 46.9194 42.3307L46.2156 42.5037C45.9288 42.5743 45.6876 42.7645 45.5553 43.0246C45.4573 43.2174 45.2984 43.3737 45.1023 43.47L44.9836 43.5284C44.7877 43.6248 44.5716 43.6749 44.3525 43.6749ZM37.6781 27.6723C37.2372 27.8123 36.6904 27.7409 36.572 27.3004C36.4748 26.9388 36.4208 26.5391 36.4208 26.1188C36.4208 24.4959 37.2252 23.1802 38.2175 23.1802C39.2098 23.1802 40.0142 24.4959 40.0142 26.1188C40.0142 26.5391 39.9603 26.9388 39.8631 27.3004C39.7447 27.7409 39.1979 27.8123 38.7569 27.6723C38.5836 27.6172 38.403 27.5881 38.2175 27.5881C38.0321 27.5881 37.8515 27.6172 37.6781 27.6723ZM43.0401 27.3004C43.1585 27.7409 43.7053 27.8123 44.1462 27.6723C44.3196 27.6172 44.5002 27.5881 44.6856 27.5881C44.8711 27.5881 45.0517 27.6172 45.225 27.6723C45.666 27.8123 46.2128 27.7409 46.3312 27.3004C46.4284 26.9388 46.4823 26.5391 46.4823 26.1188C46.4823 24.4959 45.6779 23.1802 44.6856 23.1802C43.6934 23.1802 42.8889 24.4959 42.8889 26.1188C42.8889 26.5391 42.9429 26.9388 43.0401 27.3004ZM44.4912 36.4456L45.1178 35.8294C45.4933 35.4602 45.5516 34.8816 45.257 34.447C45.1196 34.2443 44.9174 34.0924 44.6823 34.0154L43.967 33.7809L42.4452 33.4816C42.2692 33.447 42.1143 33.345 42.0148 33.1982C41.7468 32.803 41.1563 32.803 40.8884 33.1982L40.8667 33.2302C40.78 33.3581 40.6524 33.454 40.5041 33.5026L39.6549 33.7809L38.6617 34.0251C38.3759 34.0953 38.127 34.2678 37.9636 34.5089C37.6851 34.9196 37.7003 35.4585 38.0015 35.8534L38.4991 36.5058C38.5508 36.5736 38.5963 36.6459 38.6348 36.7218L38.86 37.1646C38.909 37.2611 38.9197 37.372 38.89 37.4758C38.7803 37.8586 39.2095 38.1722 39.5506 37.9584L39.9303 37.7205C39.9859 37.6856 40.0468 37.6598 40.1108 37.6441L41.103 37.4002C41.3319 37.3439 41.5713 37.3439 41.8002 37.4002L42.7924 37.6441C42.8563 37.6598 42.9173 37.6856 42.9729 37.7205L43.3526 37.9584C43.6937 38.1722 44.1229 37.8586 44.0132 37.4758C43.9834 37.372 43.9941 37.2611 44.0432 37.1646L44.222 36.8129C44.2911 36.677 44.382 36.553 44.4912 36.4456ZM41.4516 25.3004L41.8109 25.6537L42.1703 27.7739V28.8339L41.4516 29.5406L40.7329 28.8339V27.7739L41.0922 25.6537L41.4516 25.3004ZM47.9197 30.9541L47.5604 30.6007L48.279 29.894V28.8339L47.201 27.7739L47.9197 27.0671L49.3571 26.7138L50.4351 27.4205L51.5131 28.4806L51.8724 29.894L51.5131 31.3074L51.1538 32.0141L50.4351 32.7208L50.0757 32.0141L48.9977 31.6608H47.9197V30.9541ZM35.3428 30.6007L34.9835 30.9541V31.6608H33.9055L32.8274 32.0141L32.4681 32.7208L31.7494 32.0141L31.3901 31.3074L31.0307 29.894L31.3901 28.4806L32.4681 27.4205L33.5461 26.7138L34.9835 27.0671L35.7022 27.7739L34.6241 28.8339V29.894L35.3428 30.6007ZM48.1149 35.2347L47.0348 35.5002C46.9084 35.5313 46.793 35.5955 46.7009 35.6861L45.8836 36.4898C45.8047 36.5674 45.7453 36.662 45.71 36.766L45.4329 37.5834C45.414 37.6393 45.4043 37.6979 45.4043 37.7569V38.2282C45.4043 38.543 45.7914 38.7007 46.0178 38.4781C46.0851 38.4118 46.1765 38.3746 46.2718 38.3746H47.7342C47.853 38.3746 47.9669 38.3282 48.0508 38.2456C48.1871 38.1116 48.2209 37.9069 48.1347 37.7374L47.9956 37.4637C47.9457 37.3656 47.9197 37.2574 47.9197 37.1477V36.9005C47.9197 36.7131 47.9954 36.5333 48.1302 36.4008L48.5491 35.9888C48.7698 35.7718 48.7095 35.406 48.4303 35.2687C48.3327 35.2207 48.2208 35.2087 48.1149 35.2347ZM35.509 35.5002L34.4289 35.2347C34.323 35.2087 34.2111 35.2207 34.1135 35.2687C33.8344 35.406 33.774 35.7718 33.9947 35.9888L34.4136 36.4008C34.5484 36.5333 34.6241 36.7131 34.6241 36.9005V37.1477C34.6241 37.2574 34.5982 37.3656 34.5483 37.4637L34.4091 37.7374C34.3229 37.9069 34.3567 38.1116 34.493 38.2456C34.577 38.3282 34.6909 38.3746 34.8096 38.3746H36.272C36.3673 38.3746 36.4587 38.4118 36.5261 38.4781C36.7525 38.7007 37.1395 38.543 37.1395 38.2282V37.7569C37.1395 37.6979 37.1298 37.6393 37.1109 37.5834L36.8338 36.766C36.7985 36.662 36.7391 36.5674 36.6602 36.4898L35.8429 35.6861C35.7508 35.5955 35.6354 35.5313 35.509 35.5002ZM45.6584 29.7905L45.7637 29.894C45.9621 30.0891 45.9621 30.4056 45.7637 30.6007L45.6148 30.7471C45.48 30.8796 45.4043 31.0594 45.4043 31.2468V31.431C45.4043 31.5781 45.4638 31.7192 45.5696 31.8233L45.6855 31.9372C45.9007 32.1489 45.8418 32.5057 45.5696 32.6396C45.4638 32.6916 45.3413 32.7002 45.2291 32.6634L44.4176 32.3974C44.357 32.3776 44.2994 32.3498 44.2462 32.315L43.5473 31.8568C43.3605 31.7343 43.2483 31.5282 43.2483 31.3074V30.5401C43.2483 30.3526 43.324 30.1729 43.4588 30.0404L43.7129 29.7905C43.8532 29.6525 44.0807 29.6525 44.2211 29.7905C44.2884 29.8568 44.3798 29.894 44.4751 29.894H44.8961C44.9914 29.894 45.0828 29.8568 45.1502 29.7905C45.2906 29.6525 45.5181 29.6525 45.6584 29.7905ZM36.7802 29.894L36.8854 29.7905C37.0258 29.6525 37.2533 29.6525 37.3936 29.7905C37.461 29.8568 37.5524 29.894 37.6477 29.894H38.0687C38.164 29.894 38.2554 29.8568 38.3228 29.7905C38.4631 29.6525 38.6906 29.6525 38.831 29.7905L39.0851 30.0404C39.2198 30.1729 39.2956 30.3526 39.2956 30.5401V31.3074C39.2956 31.5282 39.1834 31.7343 38.9966 31.8568L38.2976 32.315C38.2445 32.3498 38.1868 32.3776 38.1262 32.3974L37.3148 32.6634C37.2026 32.7002 37.0801 32.6916 36.9743 32.6396C36.702 32.5057 36.6431 32.1489 36.8584 31.9372L36.9743 31.8233C37.0801 31.7192 37.1395 31.5781 37.1395 31.431V31.2468C37.1395 31.0594 37.0638 30.8796 36.929 30.7471L36.7802 30.6007C36.5817 30.4056 36.5817 30.0891 36.7802 29.894ZM39.2107 110.324C39.2386 110.311 39.2671 110.302 39.2956 110.297L39.2956 107.089C39.2671 107.084 39.2386 107.074 39.2107 107.061C39.0591 106.986 38.8748 107.047 38.799 107.196L38.7141 107.363C38.63 107.528 38.4581 107.633 38.27 107.633H37.3092C37.1976 107.633 37.0876 107.658 36.9878 107.707L36.5252 107.935C36.4561 107.969 36.393 108.013 36.3384 108.067L36.272 108.132C36.1372 108.265 36.0615 108.445 36.0615 108.632V108.753C36.0615 108.941 36.1372 109.12 36.272 109.253L36.3384 109.318C36.393 109.372 36.4561 109.417 36.5252 109.451L36.9878 109.678C37.0876 109.727 37.1976 109.753 37.3092 109.753H38.27C38.4581 109.753 38.63 109.857 38.7141 110.023L38.799 110.189C38.8748 110.339 39.0591 110.399 39.2107 110.324ZM34.26 104.911L33.7538 103.583C33.6332 103.267 33.3017 103.079 32.9627 103.135L31.6972 103.342C31.5013 103.374 31.3276 103.484 31.2174 103.647L29.9991 105.444C29.9689 105.489 29.9527 105.541 29.9527 105.595C29.9527 105.744 30.0762 105.866 30.2286 105.866H33.5871C34.0889 105.866 34.4362 105.373 34.26 104.911ZM33.721 114.241L34.26 112.828C34.4362 112.366 34.0889 111.873 33.5871 111.873H30.5044C30.1997 111.873 29.9527 112.116 29.9527 112.415C29.9527 112.522 29.985 112.627 30.0454 112.716L31.1767 114.385C31.31 114.582 31.5344 114.7 31.7747 114.7H33.0481C33.3477 114.7 33.6158 114.517 33.721 114.241ZM34.9835 109.046V108.693C34.9835 108.302 34.6617 107.986 34.2648 107.986H32.4681L32.8167 108.214C33.1941 108.462 33.2469 108.987 32.9262 109.302L32.4681 109.753H34.2648C34.6617 109.753 34.9835 109.436 34.9835 109.046Z" fill="#393E46" stroke="#393E46"/>
</svg>
