<svg width="80" height="140" viewBox="0 0 80 140" fill="none" xmlns="http://www.w3.org/2000/svg">
<path fill-rule="evenodd" clip-rule="evenodd" d="M44.3525 96.3251H43.5943C44.0495 95.95 44.3263 95.4547 44.3263 94.9117C44.3263 94.1902 43.8377 93.5529 43.0913 93.17C43.4069 92.9107 43.6076 92.5208 43.6076 92.0848L43.6076 22.1201C43.6076 20.9492 42.6423 20 41.4516 20C40.2608 20 39.2956 20.9492 39.2956 22.1201V26.2613C39.1777 26.2155 39.0426 26.2077 38.9091 26.2515C38.7055 26.3182 38.481 26.2661 38.3293 26.1169L37.35 25.154C37.2152 25.0214 37.0324 24.947 36.8418 24.947H35.2812C35.0906 24.947 34.9078 24.8725 34.773 24.74L34.116 24.0939C33.9812 23.9614 33.7984 23.8869 33.6078 23.8869H30.6714C30.2745 23.8869 29.9527 24.2033 29.9527 24.5936V25.361C29.9527 25.5484 29.877 25.7281 29.7422 25.8607L29.0852 26.5068C28.9504 26.6393 28.7676 26.7138 28.577 26.7138H27.9764C27.6787 26.7138 27.4374 26.9511 27.4374 27.2438C27.4374 27.5365 27.196 27.7738 26.8983 27.7738H26.7187C26.3218 27.7738 26 28.0902 26 28.4805V29.1873C26 29.5776 26.3218 29.894 26.7187 29.894H27.9864C28.098 29.894 28.208 29.9195 28.3078 29.9686L28.723 30.1727C28.8228 30.2218 28.9328 30.2473 29.0444 30.2473H31.4517C31.6423 30.2473 31.8251 30.3218 31.9599 30.4543L32.2642 30.7535C32.3948 30.8819 32.4681 31.056 32.4681 31.2376C32.4681 31.4969 32.3191 31.734 32.0832 31.85L31.9012 31.9395C31.8014 31.9886 31.6913 32.0141 31.5798 32.0141H29.0444C28.9328 32.0141 28.8228 32.0397 28.723 32.0887L28.3078 32.2929C28.208 32.3419 28.0979 32.3675 27.9864 32.3675H26.7187C26.3218 32.3675 26 32.6839 26 33.0742V33.7809C26 34.1712 26.3218 34.4876 26.7187 34.4876C27.1156 34.4876 27.4374 34.804 27.4374 35.1943V35.3493C27.4374 35.6735 27.6618 35.9562 27.9817 36.0349L28.7539 36.2247C28.8339 36.2444 28.9098 36.2774 28.9783 36.3223L29.6327 36.7513C29.8326 36.8824 29.9527 37.103 29.9527 37.3393V38.0825C29.9527 38.448 30.2362 38.7532 30.6063 38.7863L33.4562 39.0411C33.7309 39.0656 33.9956 38.9334 34.1376 38.7009L34.7741 37.6576C34.904 37.4447 35.1379 37.3145 35.3904 37.3145H36.9C37.0555 37.3145 37.2068 37.2649 37.3312 37.1731L38.2276 36.512C38.4416 36.3541 38.7075 36.3227 38.9557 36.4212C39.0754 36.4688 39.1925 36.4712 39.2956 36.4392L39.2956 92.0848C39.2956 92.5208 39.4963 92.9107 39.8119 93.17C39.0655 93.5529 38.5769 94.1902 38.5769 94.9117C38.5769 95.4547 38.8537 95.95 39.3089 96.3251H38.5507C38.3316 96.3251 38.1155 96.3752 37.9196 96.4716L37.8193 96.5209C37.6113 96.6232 37.4426 96.789 37.3386 96.9936C37.2111 97.2443 36.9876 97.435 36.7171 97.5236L36.2828 97.666C36.1362 97.714 35.9985 97.785 35.8749 97.8761L34.8211 98.6533C34.6907 98.7495 34.578 98.8667 34.4876 99L34.1408 99.5116C33.9953 99.7262 33.9779 100.001 34.0952 100.232L34.142 100.324C34.3635 100.76 34.0414 101.272 33.5461 101.272H32.8074C32.5843 101.272 32.3642 101.323 32.1646 101.421L32.0908 101.458C31.8671 101.568 31.6764 101.733 31.5377 101.938L31.2722 102.329C31.1147 102.562 31.0307 102.834 31.0307 103.113V103.516C31.0307 103.668 31.0557 103.819 31.1045 103.963L31.1519 104.103C31.3011 104.543 31.2212 105.027 30.9382 105.398L30.4261 106.07C30.3504 106.169 30.2883 106.277 30.2415 106.393L29.6424 107.865C29.6098 107.946 29.5847 108.028 29.5675 108.113L29.262 109.615C29.2434 109.707 29.234 109.8 29.234 109.893V111.345C29.234 111.461 29.2485 111.576 29.277 111.688L29.5505 112.764C29.579 112.876 29.5934 112.991 29.5934 113.107V113.943C29.5934 114.416 29.8336 114.857 30.2334 115.119L30.553 115.329C30.6317 115.38 30.7051 115.44 30.772 115.505L30.9691 115.699C31.2387 115.964 31.6042 116.113 31.9855 116.113H32.5144C32.7203 116.113 32.9233 116.16 33.1074 116.251C33.3905 116.39 33.7149 116.425 34.022 116.349L34.2754 116.287C34.7204 116.178 35.1918 116.284 35.5442 116.573L36.9312 117.709C37.0689 117.822 37.2268 117.908 37.3968 117.964L38.0349 118.173C38.1561 118.213 38.2714 118.269 38.3777 118.338L39.1771 118.862C39.2559 118.914 39.3293 118.973 39.3962 119.039L39.7601 119.397C39.9228 119.557 40.1435 119.647 40.3736 119.647H40.4788C40.6415 119.647 40.7975 119.71 40.9126 119.823C41.0276 119.936 41.1836 120 41.3463 120H41.55C41.7216 120 41.8908 119.961 42.0443 119.885L42.4129 119.704C42.4897 119.666 42.5743 119.647 42.6601 119.647C42.8066 119.647 42.9472 119.589 43.0508 119.487L43.3535 119.19C43.5162 119.03 43.7369 118.94 43.967 118.94C44.197 118.94 44.4177 118.85 44.5804 118.69L44.8051 118.469C44.9628 118.314 45.1552 118.197 45.3669 118.128L45.8011 117.985C46.0128 117.916 46.2051 117.799 46.3629 117.644L47.5589 116.468C47.7744 116.256 48.1035 116.203 48.3761 116.337C48.544 116.42 48.7384 116.434 48.9166 116.375L49.4951 116.186C49.6417 116.138 49.7952 116.113 49.9496 116.113H50.5584C50.9396 116.113 51.3052 115.964 51.5747 115.699L51.7718 115.505C51.8387 115.44 51.9121 115.38 51.9909 115.329L52.3104 115.119C52.7103 114.857 52.9504 114.416 52.9504 113.943V113.267C52.9504 113.047 53.0024 112.831 53.1022 112.634L53.583 111.689C53.6402 111.576 53.6818 111.457 53.7069 111.334L53.9721 110.03C54.0093 109.847 54.0093 109.658 53.9721 109.475L53.695 108.113C53.6778 108.028 53.6527 107.946 53.6201 107.865L53.0211 106.393C52.9742 106.277 52.9121 106.169 52.8364 106.07L52.1599 105.183C51.9733 104.938 51.8724 104.64 51.8724 104.335V103.113C51.8724 102.834 51.7884 102.562 51.631 102.329L51.462 102.08C51.2637 101.788 50.9615 101.578 50.6147 101.493L49.8081 101.295C49.7472 101.28 49.6846 101.272 49.6219 101.272C49.1223 101.272 48.7557 100.81 48.8769 100.334L48.9311 100.12C48.9746 99.9495 48.9676 99.7698 48.9109 99.6026L48.7804 99.2175C48.6879 98.9447 48.5131 98.7062 48.2792 98.5337L47.4332 97.9098C47.28 97.7967 47.1053 97.715 46.9194 97.6693L46.2156 97.4963C45.9288 97.4257 45.6876 97.2355 45.5553 96.9754C45.4573 96.7826 45.2984 96.6263 45.1023 96.53L44.9836 96.4716C44.7877 96.3752 44.5716 96.3251 44.3525 96.3251ZM37.6781 112.328C37.2372 112.188 36.6904 112.259 36.572 112.7C36.4748 113.061 36.4208 113.461 36.4208 113.881C36.4208 115.504 37.2252 116.82 38.2175 116.82C39.2098 116.82 40.0142 115.504 40.0142 113.881C40.0142 113.461 39.9603 113.061 39.8631 112.7C39.7447 112.259 39.1979 112.188 38.7569 112.328C38.5836 112.383 38.403 112.412 38.2175 112.412C38.0321 112.412 37.8515 112.383 37.6781 112.328ZM43.0401 112.7C43.1585 112.259 43.7053 112.188 44.1462 112.328C44.3196 112.383 44.5002 112.412 44.6856 112.412C44.8711 112.412 45.0517 112.383 45.225 112.328C45.666 112.188 46.2128 112.259 46.3312 112.7C46.4284 113.061 46.4823 113.461 46.4823 113.881C46.4823 115.504 45.6779 116.82 44.6856 116.82C43.6934 116.82 42.8889 115.504 42.8889 113.881C42.8889 113.461 42.9429 113.061 43.0401 112.7ZM44.4912 103.554L45.1178 104.171C45.4933 104.54 45.5516 105.118 45.257 105.553C45.1196 105.756 44.9174 105.908 44.6823 105.985L43.967 106.219L42.4452 106.518C42.2692 106.553 42.1143 106.655 42.0148 106.802C41.7468 107.197 41.1563 107.197 40.8884 106.802L40.8667 106.77C40.78 106.642 40.6524 106.546 40.5041 106.497L39.6549 106.219L38.6617 105.975C38.3759 105.905 38.127 105.732 37.9636 105.491C37.6851 105.08 37.7003 104.542 38.0015 104.147L38.4991 103.494C38.5508 103.426 38.5963 103.354 38.6348 103.278L38.86 102.835C38.909 102.739 38.9197 102.628 38.89 102.524C38.7803 102.141 39.2095 101.828 39.5506 102.042L39.9303 102.28C39.9859 102.314 40.0468 102.34 40.1108 102.356L41.103 102.6C41.3319 102.656 41.5713 102.656 41.8002 102.6L42.7924 102.356C42.8563 102.34 42.9173 102.314 42.9729 102.28L43.3526 102.042C43.6937 101.828 44.1229 102.141 44.0132 102.524C43.9834 102.628 43.9941 102.739 44.0432 102.835L44.222 103.187C44.2911 103.323 44.382 103.447 44.4912 103.554ZM41.4516 114.7L41.8109 114.346L42.1703 112.226V111.166L41.4516 110.459L40.7329 111.166V112.226L41.0922 114.346L41.4516 114.7ZM47.9197 109.046L47.5604 109.399L48.279 110.106V111.166L47.201 112.226L47.9197 112.933L49.3571 113.286L50.4351 112.58L51.5131 111.519L51.8724 110.106L51.5131 108.693L51.1538 107.986L50.4351 107.279L50.0757 107.986L48.9977 108.339H47.9197V109.046ZM35.3428 109.399L34.9835 109.046V108.339H33.9055L32.8274 107.986L32.4681 107.279L31.7494 107.986L31.3901 108.693L31.0307 110.106L31.3901 111.519L32.4681 112.58L33.5461 113.286L34.9835 112.933L35.7022 112.226L34.6241 111.166V110.106L35.3428 109.399ZM48.1149 104.765L47.0348 104.5C46.9084 104.469 46.793 104.404 46.7009 104.314L45.8836 103.51C45.8047 103.433 45.7453 103.338 45.71 103.234L45.4329 102.417C45.414 102.361 45.4043 102.302 45.4043 102.243V101.772C45.4043 101.457 45.7914 101.299 46.0178 101.522C46.0851 101.588 46.1765 101.625 46.2718 101.625H47.7342C47.853 101.625 47.9669 101.672 48.0508 101.754C48.1871 101.888 48.2209 102.093 48.1347 102.263L47.9956 102.536C47.9457 102.634 47.9197 102.743 47.9197 102.852V103.099C47.9197 103.287 47.9954 103.467 48.1302 103.599L48.5491 104.011C48.7698 104.228 48.7095 104.594 48.4303 104.731C48.3327 104.779 48.2208 104.791 48.1149 104.765ZM35.509 104.5L34.4289 104.765C34.323 104.791 34.2111 104.779 34.1135 104.731C33.8344 104.594 33.774 104.228 33.9947 104.011L34.4136 103.599C34.5484 103.467 34.6241 103.287 34.6241 103.099V102.852C34.6241 102.743 34.5982 102.634 34.5483 102.536L34.4091 102.263C34.3229 102.093 34.3567 101.888 34.493 101.754C34.577 101.672 34.6909 101.625 34.8096 101.625H36.272C36.3673 101.625 36.4587 101.588 36.5261 101.522C36.7525 101.299 37.1395 101.457 37.1395 101.772V102.243C37.1395 102.302 37.1298 102.361 37.1109 102.417L36.8338 103.234C36.7985 103.338 36.7391 103.433 36.6602 103.51L35.8429 104.314C35.7508 104.404 35.6354 104.469 35.509 104.5ZM45.6584 110.21L45.7637 110.106C45.9621 109.911 45.9621 109.594 45.7637 109.399L45.6148 109.253C45.48 109.12 45.4043 108.941 45.4043 108.753V108.569C45.4043 108.422 45.4638 108.281 45.5696 108.177L45.6855 108.063C45.9007 107.851 45.8418 107.494 45.5696 107.36C45.4638 107.308 45.3413 107.3 45.2291 107.337L44.4176 107.603C44.357 107.622 44.2994 107.65 44.2462 107.685L43.5473 108.143C43.3605 108.266 43.2483 108.472 43.2483 108.693V109.46C43.2483 109.647 43.324 109.827 43.4588 109.96L43.7129 110.21C43.8532 110.347 44.0807 110.347 44.2211 110.21C44.2884 110.143 44.3798 110.106 44.4751 110.106H44.8961C44.9914 110.106 45.0828 110.143 45.1502 110.21C45.2906 110.347 45.5181 110.347 45.6584 110.21ZM36.7802 110.106L36.8854 110.21C37.0258 110.347 37.2533 110.347 37.3936 110.21C37.461 110.143 37.5524 110.106 37.6477 110.106H38.0687C38.164 110.106 38.2554 110.143 38.3228 110.21C38.4631 110.347 38.6906 110.347 38.831 110.21L39.0851 109.96C39.2198 109.827 39.2956 109.647 39.2956 109.46V108.693C39.2956 108.472 39.1834 108.266 38.9966 108.143L38.2976 107.685C38.2445 107.65 38.1868 107.622 38.1262 107.603L37.3148 107.337C37.2026 107.3 37.0801 107.308 36.9743 107.36C36.702 107.494 36.6431 107.851 36.8584 108.063L36.9743 108.177C37.0801 108.281 37.1395 108.422 37.1395 108.569V108.753C37.1395 108.941 37.0638 109.12 36.929 109.253L36.7802 109.399C36.5817 109.594 36.5817 109.911 36.7802 110.106ZM39.2107 29.6756C39.2386 29.6893 39.2671 29.6984 39.2956 29.7033L39.2956 32.9115C39.2671 32.9164 39.2386 32.9255 39.2107 32.9392C39.0591 33.0138 38.8748 32.9533 38.799 32.8042L38.7141 32.6374C38.63 32.472 38.4581 32.3675 38.27 32.3675H37.3092C37.1976 32.3675 37.0876 32.3419 36.9878 32.2929L36.5252 32.0654C36.4561 32.0314 36.393 31.9867 36.3384 31.933L36.272 31.8677C36.1372 31.7352 36.0615 31.5555 36.0615 31.368V31.2468C36.0615 31.0593 36.1372 30.8796 36.272 30.747L36.3384 30.6818C36.393 30.6281 36.4561 30.5834 36.5252 30.5494L36.9878 30.3219C37.0876 30.2729 37.1976 30.2473 37.3092 30.2473H38.27C38.4581 30.2473 38.63 30.1428 38.7141 29.9774L38.799 29.8106C38.8748 29.6615 39.0591 29.601 39.2107 29.6756ZM34.26 35.0891L33.7538 36.4165C33.6332 36.7329 33.3017 36.921 32.9627 36.8655L31.6972 36.6581C31.5013 36.626 31.3276 36.5155 31.2174 36.353L29.9991 34.5559C29.9689 34.5114 29.9527 34.459 29.9527 34.4055C29.9527 34.2557 30.0762 34.1343 30.2286 34.1343H33.5871C34.0889 34.1343 34.4362 34.6271 34.26 35.0891ZM33.721 25.7589L34.26 27.1723C34.4362 27.6343 34.0889 28.1272 33.5871 28.1272H30.5044C30.1997 28.1272 29.9527 27.8843 29.9527 27.5847C29.9527 27.4776 29.985 27.3729 30.0454 27.2838L31.1767 25.615C31.31 25.4184 31.5344 25.3003 31.7747 25.3003H33.0481C33.3477 25.3003 33.6158 25.4831 33.721 25.7589ZM34.9835 30.954V31.3074C34.9835 31.6977 34.6617 32.0141 34.2648 32.0141H32.4681L32.8167 31.7856C33.1941 31.5382 33.2469 31.0132 32.9262 30.6978L32.4681 30.2473H34.2648C34.6617 30.2473 34.9835 30.5637 34.9835 30.954Z" fill="#393E46" stroke="#393E46"/>
</svg>
