<svg width="80" height="150" viewBox="0 0 80 150" fill="none" xmlns="http://www.w3.org/2000/svg">
<path fill-rule="evenodd" clip-rule="evenodd" d="M41.1852 119.137C41.1852 119.614 40.7868 120 40.2954 120H39.7046C39.2132 120 38.8148 119.614 38.8148 119.137C38.8148 118.91 38.9052 118.703 39.053 118.549C38.7805 118.356 38.5709 118.08 38.4666 117.751L37.1515 113.601C36.9018 112.814 37.2611 112.019 37.9191 111.625C37.3817 111.334 37.037 110.779 37.037 110.166C37.037 109.567 37.3625 109.041 37.8513 108.746C37.6632 108.569 37.5346 108.331 37.5 108.063L37.037 104.467L37.037 101.016L37.5391 95.1662C37.5903 94.5704 38.1038 94.1121 38.7202 94.1121H37.9268C37.4354 94.1121 37.037 93.7258 37.037 93.2492C37.037 92.7726 37.4354 92.3862 37.9268 92.3862H37.037C36.7098 92.3862 36.4444 92.1289 36.4444 91.8115V90.9854C36.4444 91.1347 36.3845 91.2782 36.2773 91.3854L36.1481 91.5146C35.986 91.6768 35.7177 91.6768 35.5556 91.5146C35.3934 91.3524 35.1251 91.3524 34.963 91.5146C34.8008 91.6768 34.5325 91.6768 34.3704 91.5146L34.2465 91.3907C34.1363 91.2805 33.9847 91.2182 33.8264 91.2182H32.448C32.347 91.2182 32.2463 91.2099 32.1468 91.1933L29.0108 90.6705C28.8318 90.6407 28.6586 90.5844 28.4972 90.5037L26.6292 89.5695C26.4578 89.4838 26.3019 89.3716 26.1677 89.2373L25.384 88.4535C25.2523 88.3218 25.1431 88.1705 25.0606 88.0054L24.1581 86.2C24.0541 85.9919 24 85.7636 24 85.5323C24 85.3724 24.0258 85.2136 24.0765 85.0615L24.4653 83.8947C24.5491 83.6435 24.6911 83.4143 24.8806 83.2248L25.6383 82.467C25.7307 82.3746 25.8379 82.2974 25.9559 82.2384C26.2228 82.1049 26.5311 82.0713 26.822 82.144L27.0713 82.2063C27.388 82.2855 27.676 82.448 27.9037 82.6757L28.4692 83.2413C28.6433 83.4155 28.7407 83.6486 28.7407 83.8912C28.7407 84.0323 28.7078 84.1716 28.6443 84.2985L28.4066 84.7741C28.2388 85.1097 27.9634 85.3834 27.6217 85.5543L27.2263 85.7521C27.0533 85.8386 26.8614 85.8838 26.6667 85.8838H26.5837C26.4435 85.8838 26.3054 85.8513 26.1807 85.7889L25.9666 85.6818C25.8481 85.6226 25.7074 85.6226 25.589 85.6818C25.3726 85.79 25.2997 86.0556 25.4318 86.2538L26.2754 87.5195C26.3386 87.6142 26.4111 87.7027 26.4921 87.7837L26.7603 88.0519C26.8945 88.1862 27.0504 88.2984 27.2218 88.3841L28.0334 88.79C28.1098 88.8282 28.189 88.861 28.2702 88.8881L29.645 89.3464C29.831 89.4084 30.0263 89.4401 30.223 89.4401H33.8264C33.9847 89.4401 34.1363 89.3779 34.2465 89.2676L34.3704 89.1437C34.5325 88.9815 34.8008 88.9815 34.963 89.1437C35.1251 89.3059 35.3934 89.3059 35.5556 89.1437C35.7177 88.9815 35.986 88.9815 36.1481 89.1437L36.2773 89.2729C36.3845 89.3801 36.4444 89.5236 36.4444 89.673V88.7143C36.4444 88.4967 36.5712 88.2977 36.7718 88.2003L37.5132 87.8405C37.5466 87.8243 37.5782 87.8051 37.6077 87.7833C37.2912 87.7685 37.0403 87.5131 37.0441 87.2025L37.6296 38.8846L39.6332 20.5143C39.7089 19.8205 40.7541 19.8323 40.8131 20.5276L42.3704 38.8846L42.9559 87.2025C42.9597 87.5131 42.7088 87.7685 42.3923 87.7833C42.4218 87.8051 42.4534 87.8243 42.4868 87.8405L43.2282 88.2003C43.4288 88.2977 43.5556 88.4967 43.5556 88.7143V89.673C43.5556 89.5236 43.6155 89.3801 43.7227 89.2729L43.8519 89.1437C44.014 88.9815 44.2823 88.9815 44.4444 89.1437C44.6066 89.3059 44.8749 89.3059 45.037 89.1437C45.1992 88.9815 45.4675 88.9815 45.6296 89.1437L45.7535 89.2676C45.8637 89.3779 46.0153 89.4401 46.1736 89.4401H49.777C49.9737 89.4401 50.169 89.4084 50.355 89.3464L51.7298 88.8881C51.811 88.861 51.8902 88.8282 51.9666 88.79L52.7782 88.3841C52.9496 88.2984 53.1055 88.1862 53.2397 88.0519L53.5079 87.7837C53.5889 87.7027 53.6614 87.6142 53.7246 87.5195L54.5682 86.2538C54.7003 86.0556 54.6274 85.79 54.411 85.6818C54.2926 85.6226 54.1519 85.6226 54.0334 85.6818L53.8193 85.7889C53.6946 85.8513 53.5565 85.8838 53.4163 85.8838H53.3333C53.1386 85.8838 52.9467 85.8386 52.7737 85.7521L52.3783 85.5543C52.0366 85.3834 51.7612 85.1097 51.5934 84.7741L51.3557 84.2985C51.2922 84.1716 51.2593 84.0323 51.2593 83.8912C51.2593 83.6486 51.3567 83.4155 51.5308 83.2413L52.0963 82.6757C52.324 82.448 52.612 82.2855 52.9287 82.2063L53.178 82.144C53.4689 82.0713 53.7772 82.1049 54.0441 82.2384C54.1621 82.2974 54.2693 82.3746 54.3617 82.467L55.1194 83.2248C55.3089 83.4143 55.4509 83.6435 55.5347 83.8947L55.9235 85.0615C55.9742 85.2136 56 85.3724 56 85.5323C56 85.7636 55.9459 85.9919 55.8419 86.2L54.9394 88.0054C54.8569 88.1705 54.7477 88.3218 54.616 88.4535L53.8323 89.2373C53.6981 89.3716 53.5422 89.4838 53.3708 89.5695L51.5028 90.5037C51.3414 90.5844 51.1682 90.6407 50.9892 90.6705L47.8532 91.1933C47.7537 91.2099 47.653 91.2182 47.552 91.2182H46.1736C46.0153 91.2182 45.8637 91.2805 45.7535 91.3907L45.6296 91.5146C45.4675 91.6768 45.1992 91.6768 45.037 91.5146C44.8749 91.3524 44.6066 91.3524 44.4444 91.5146C44.2823 91.6768 44.014 91.6768 43.8519 91.5146L43.7227 91.3854C43.6155 91.2782 43.5556 91.1347 43.5556 90.9854V91.8115C43.5556 92.1289 43.2902 92.3862 42.963 92.3862H42.0732C42.5646 92.3862 42.963 92.7726 42.963 93.2492C42.963 93.7258 42.5646 94.1121 42.0732 94.1121H41.2798C41.8962 94.1121 42.4097 94.5704 42.4609 95.1662L42.963 101.016L42.963 104.467L42.5 108.063C42.4654 108.331 42.3368 108.569 42.1487 108.746C42.6375 109.041 42.963 109.567 42.963 110.166C42.963 110.779 42.6183 111.334 42.0809 111.625C42.7389 112.019 43.0982 112.814 42.8485 113.601L41.5334 117.751C41.4291 118.08 41.2195 118.356 40.947 118.549C41.0948 118.703 41.1852 118.91 41.1852 119.137ZM40.5926 85.6266L40.5926 34.0907L41.4222 47.5139L41.7713 87.057L40.5926 85.6266ZM39.4074 85.6266L39.4074 37.0734L38.5778 47.5139L38.2286 87.0571L39.4074 85.6266Z" fill="#EEEEEE"/>
<path d="M20.7045 131H20.5445L17.9045 133.88V134.74H16.0245V135H17.9045V142.06C17.9045 143.9 19.5245 145 21.9045 145L23.7045 144.52L24.3445 141.4L24.1645 141.36C23.4245 143.06 22.6445 144.62 21.7045 144.66C20.8645 144.68 20.7045 143.32 20.7045 141.96V135H23.3045L23.0845 134.74H22.1445C20.7245 134.74 20.7045 133.44 20.7045 133.32V131ZM31.0895 145.2C34.7695 145.2 37.2295 142.88 37.2295 140C37.2295 137.08 34.8495 134.8 31.0895 134.8C27.4095 134.8 24.8895 136.96 24.8895 140C24.8895 142.9 27.3295 145.2 31.0895 145.2ZM30.8495 144.9C28.9495 144.9 27.7095 143.12 27.7495 140.42C27.8095 137.22 29.1495 135.1 31.2895 135.1C33.1695 135.1 34.4095 136.86 34.3495 139.48C34.3095 142.86 33.0495 144.9 30.8495 144.9ZM52.5599 140C52.5599 136.68 49.8799 134.8 47.1199 134.8C45.0399 134.8 43.4399 135.9 42.6599 137.54V136.7C42.6599 136.7 42.6599 135.26 44.0599 135.26L43.8199 135H38.2999L38.5399 135.26H39.8599V147.62C39.7599 148.1 39.4599 148.78 38.4799 148.78L38.7199 149.04H44.2399L43.9999 148.78H42.6599V142.56C43.3999 144.16 44.8599 145.2 46.5999 145.2C50.1399 145.2 52.5599 142.98 52.5599 140ZM49.6999 139.48C49.6399 142.98 48.4599 144.84 46.3399 144.84C44.3999 144.84 42.6999 142.92 42.6599 140.38V140.2C42.7199 137.16 44.5199 135.1 46.7599 135.1C48.5199 135.1 49.7399 136.46 49.6999 139.48ZM63.3441 135.04C63.3441 132.46 61.2841 130.8 58.4441 130.8C56.8241 130.8 55.1241 131.34 54.1441 131.38L53.3441 134.84L53.5241 134.88C54.9041 132.76 56.2241 131.14 58.2041 131.14C59.7641 131.14 60.7241 132.26 60.7241 133.92C60.7241 138.1 54.7841 136.48 56.7441 141.82H57.0241C55.7241 136.52 63.3441 140.32 63.3441 135.04ZM55.9041 143.86C55.9041 144.52 56.3241 145 57.0041 145C57.7041 145 58.1641 144.52 58.1641 143.86C58.1641 143.16 57.7041 142.68 57.0041 142.68C56.3241 142.68 55.9041 143.16 55.9041 143.86Z" fill="#EEEEEE"/>
</svg>
