<svg width="100" height="32" viewBox="0 0 100 32" fill="none" xmlns="http://www.w3.org/2000/svg">
<path fill-rule="evenodd" clip-rule="evenodd" d="M0.862929 17.1852C0.386346 17.1852 -6.64989e-07 16.7868 -6.86469e-07 16.2954L-7.12295e-07 15.7046C-7.33775e-07 15.2132 0.386346 14.8148 0.862929 14.8148C1.08996 14.8148 1.29651 14.9052 1.45057 15.053C1.64384 14.7805 1.92023 14.5709 2.24927 14.4666L6.39856 13.1515C7.18632 12.9018 7.98089 13.2611 8.37484 13.9191C8.66628 13.3817 9.22079 13.037 9.8339 13.037C10.4335 13.037 10.9593 13.3624 11.2543 13.8513C11.4311 13.6632 11.6686 13.5346 11.9374 13.5L15.5327 13.037L18.9845 13.037L24.8338 13.5391C25.4296 13.5903 25.8879 14.1038 25.8879 14.7202L25.8879 13.9268C25.8879 13.4354 26.2742 13.037 26.7508 13.037C27.2274 13.037 27.6137 13.4354 27.6137 13.9268L27.6137 13.037C27.6137 12.7098 27.8711 12.4444 28.1885 12.4444L29.0146 12.4444C28.8653 12.4444 28.7218 12.3845 28.6146 12.2773L28.4854 12.1481C28.3232 11.986 28.3232 11.7177 28.4854 11.5556C28.6476 11.3934 28.6476 11.1251 28.4854 10.963C28.3232 10.8008 28.3232 10.5325 28.4854 10.3704L28.6093 10.2465C28.7195 10.1363 28.7818 9.9847 28.7818 9.82636L28.7818 8.44797C28.7818 8.34704 28.7901 8.24629 28.8067 8.14681L29.3295 5.01081C29.3593 4.83182 29.4156 4.6586 29.4963 4.49719L30.4305 2.62919C30.5162 2.45778 30.6284 2.3019 30.7627 2.16766L31.5465 1.38398C31.6782 1.25229 31.8295 1.14313 31.9946 1.0606L33.7999 0.158106C34.0081 0.0540551 34.2364 -1.73494e-06 34.4677 -1.74505e-06C34.6276 -1.75204e-06 34.7864 0.0258093 34.9385 0.0764934L36.1053 0.465332C36.3565 0.549052 36.5857 0.691138 36.7752 0.880636L37.533 1.63829C37.6254 1.73066 37.7026 1.83793 37.7616 1.95587C37.8951 2.22283 37.9287 2.53111 37.856 2.82196L37.7937 3.07125C37.7145 3.38797 37.552 3.67603 37.3243 3.90371L36.7587 4.46919C36.5845 4.64334 36.3514 4.74074 36.1088 4.74074C35.9677 4.74074 35.8284 4.70777 35.7015 4.6443L35.2259 4.40656C34.8903 4.23882 34.6166 3.96341 34.4456 3.62166L34.2479 3.22631C34.1614 3.05325 34.1162 2.86137 34.1162 2.66666L34.1162 2.58372C34.1162 2.44352 34.1487 2.30535 34.2111 2.18075L34.3182 1.96658C34.3774 1.84812 34.3774 1.70743 34.3182 1.58898C34.21 1.37265 33.9444 1.29968 33.7462 1.43182L32.4805 2.27542C32.3858 2.33857 32.2973 2.41115 32.2163 2.49212L31.9481 2.76025C31.8138 2.8945 31.7016 3.05038 31.6159 3.22178L31.21 4.03341C31.1718 4.1098 31.139 4.18895 31.1119 4.27023L30.6536 5.64501C30.5916 5.831 30.5599 6.0263 30.5599 6.22297L30.5599 9.82636C30.5599 9.9847 30.6221 10.1363 30.7324 10.2465L30.8563 10.3704C31.0184 10.5325 31.0184 10.8008 30.8563 10.963C30.6941 11.1251 30.6941 11.3934 30.8563 11.5556C31.0184 11.7177 31.0184 11.986 30.8563 12.1481L30.7271 12.2773C30.6199 12.3845 30.4764 12.4444 30.327 12.4444L31.2857 12.4444C31.5033 12.4444 31.7023 12.5712 31.7997 12.7718L32.1595 13.5132C32.1757 13.5466 32.1949 13.5782 32.2167 13.6077C32.2315 13.2912 32.4869 13.0403 32.7975 13.0441L81.1154 13.6296L99.4857 15.6332C100.179 15.7089 100.168 16.7541 99.4724 16.8131L81.1154 18.3704L32.7975 18.9559C32.4869 18.9597 32.2315 18.7088 32.2167 18.3923C32.1949 18.4218 32.1757 18.4534 32.1595 18.4868L31.7997 19.2282C31.7023 19.4288 31.5033 19.5556 31.2857 19.5556L30.327 19.5556C30.4764 19.5556 30.6199 19.6155 30.7271 19.7227L30.8563 19.8519C31.0184 20.014 31.0184 20.2823 30.8563 20.4444C30.6941 20.6066 30.6941 20.8749 30.8563 21.037C31.0185 21.1992 31.0185 21.4675 30.8563 21.6296L30.7324 21.7535C30.6221 21.8637 30.5599 22.0153 30.5599 22.1736L30.5599 25.777C30.5599 25.9737 30.5916 26.169 30.6536 26.355L31.1119 27.7298C31.139 27.811 31.1718 27.8902 31.21 27.9666L31.6159 28.7782C31.7016 28.9496 31.8138 29.1055 31.9481 29.2397L32.2163 29.5079C32.2973 29.5889 32.3858 29.6614 32.4805 29.7246L33.7462 30.5682C33.9444 30.7003 34.21 30.6274 34.3182 30.411C34.3774 30.2926 34.3774 30.1519 34.3182 30.0334L34.2111 29.8193C34.1487 29.6946 34.1162 29.5565 34.1162 29.4163L34.1162 29.3333C34.1162 29.1386 34.1614 28.9467 34.2479 28.7737L34.4457 28.3783C34.6166 28.0366 34.8903 27.7612 35.2259 27.5934L35.7015 27.3557C35.8284 27.2922 35.9677 27.2593 36.1088 27.2593C36.3514 27.2593 36.5845 27.3567 36.7587 27.5308L37.3243 28.0963C37.552 28.324 37.7145 28.612 37.7937 28.9287L37.856 29.178C37.9287 29.4689 37.8951 29.7772 37.7616 30.0441C37.7026 30.1621 37.6254 30.2693 37.533 30.3617L36.7752 31.1194C36.5857 31.3089 36.3565 31.4509 36.1053 31.5347L34.9385 31.9235C34.7864 31.9742 34.6276 32 34.4677 32C34.2364 32 34.0081 31.9459 33.8 31.8419L31.9946 30.9394C31.8295 30.8569 31.6782 30.7477 31.5465 30.616L30.7627 29.8323C30.6284 29.6981 30.5162 29.5422 30.4305 29.3708L29.4963 27.5028C29.4156 27.3414 29.3593 27.1682 29.3295 26.9892L28.8067 23.8532C28.7901 23.7537 28.7818 23.653 28.7818 23.552L28.7818 22.1736C28.7818 22.0153 28.7195 21.8637 28.6093 21.7535L28.4854 21.6296C28.3232 21.4675 28.3232 21.1992 28.4854 21.037C28.6476 20.8749 28.6476 20.6066 28.4854 20.4444C28.3232 20.2823 28.3232 20.014 28.4854 19.8519L28.6146 19.7227C28.7218 19.6155 28.8653 19.5556 29.0146 19.5556L28.1885 19.5556C27.8711 19.5556 27.6137 19.2902 27.6137 18.963L27.6137 18.0732C27.6137 18.5646 27.2274 18.963 26.7508 18.963C26.2742 18.963 25.8879 18.5646 25.8879 18.0732L25.8879 17.2798C25.8879 17.8962 25.4296 18.4097 24.8338 18.4609L18.9845 18.963L15.5327 18.963L11.9374 18.5C11.6686 18.4654 11.4311 18.3368 11.2543 18.1487C10.9593 18.6375 10.4335 18.963 9.8339 18.963C9.22079 18.963 8.66628 18.6183 8.37484 18.0809C7.98089 18.7389 7.18632 19.0982 6.39856 18.8485L2.24927 17.5334C1.92023 17.4291 1.64384 17.2195 1.45058 16.947C1.29651 17.0948 1.08996 17.1852 0.862929 17.1852ZM34.3734 16.5926L85.9093 16.5926L72.4861 17.4222L32.943 17.7713L34.3734 16.5926ZM34.3734 15.4074L82.9266 15.4074L72.4861 14.5778L32.9429 14.2286L34.3734 15.4074Z" fill="#131314"/>
</svg>
