<svg width="102" height="30" viewBox="0 0 102 30" fill="none" xmlns="http://www.w3.org/2000/svg">
<path fill-rule="evenodd" clip-rule="evenodd" d="M77.3251 10.6475L77.3251 11.4057C76.95 10.9505 76.4547 10.6737 75.9117 10.6737C75.1902 10.6737 74.5529 11.1623 74.17 11.9087C73.9107 11.5931 73.5208 11.3924 73.0848 11.3924L3.12014 11.3924C1.94921 11.3924 0.999997 12.3577 0.999997 13.5484C0.999997 14.7391 1.94921 15.7044 3.12014 15.7044L7.26132 15.7044C7.21547 15.8223 7.20775 15.9574 7.25151 16.0909C7.31825 16.2945 7.26613 16.519 7.11691 16.6707L6.15396 17.65C6.02143 17.7848 5.94697 17.9676 5.94697 18.1582L5.94697 19.7188C5.94697 19.9094 5.87252 20.0922 5.73998 20.227L5.09389 20.884C4.96136 21.0188 4.8869 21.2016 4.8869 21.3922L4.8869 24.3286C4.8869 24.7255 5.20331 25.0473 5.59361 25.0473L6.36095 25.0473C6.54839 25.0473 6.72815 25.123 6.86068 25.2578L7.50677 25.9148C7.63931 26.0496 7.71376 26.2324 7.71376 26.423L7.71376 27.0236C7.71376 27.3213 7.95106 27.5626 8.24379 27.5626C8.53652 27.5626 8.77383 27.804 8.77383 28.1016L8.77383 28.2813C8.77383 28.6782 9.09024 29 9.48054 29L10.1873 29C10.5776 29 10.894 28.6782 10.894 28.2813L10.894 27.0136C10.894 26.902 10.9195 26.792 10.9686 26.6922L11.1727 26.277C11.2218 26.1772 11.2473 26.0672 11.2473 25.9556L11.2473 23.5483C11.2473 23.3576 11.3218 23.1748 11.4543 23.0401L11.7535 22.7358C11.8819 22.6052 12.056 22.5319 12.2376 22.5319C12.4969 22.5319 12.734 22.6809 12.85 22.9168L12.9395 23.0988C12.9886 23.1986 13.0141 23.3087 13.0141 23.4202L13.0141 25.9556C13.0141 26.0672 13.0397 26.1772 13.0887 26.277L13.2929 26.6922C13.3419 26.792 13.3675 26.902 13.3675 27.0136L13.3675 28.2813C13.3675 28.6782 13.6839 29 14.0742 29L14.7809 29C15.1712 29 15.4876 28.6782 15.4876 28.2813C15.4876 27.8844 15.804 27.5626 16.1943 27.5626L16.3492 27.5626C16.6735 27.5626 16.9562 27.3382 17.0349 27.0183L17.2247 26.246C17.2444 26.1661 17.2774 26.0902 17.3223 26.0217L17.7513 25.3673C17.8824 25.1674 18.103 25.0473 18.3393 25.0473L19.0825 25.0473C19.448 25.0473 19.7532 24.7638 19.7863 24.3936L20.0411 21.5438C20.0656 21.2691 19.9334 21.0043 19.7009 20.8624L18.6576 20.2259C18.4447 20.096 18.3145 19.862 18.3145 19.6096L18.3145 18.1C18.3145 17.9445 18.2649 17.7932 18.1731 17.6688L17.512 16.7724C17.3541 16.5583 17.3227 16.2925 17.4212 16.0443C17.4688 15.9246 17.4712 15.8075 17.4392 15.7044L73.0848 15.7044C73.5208 15.7044 73.9107 15.5037 74.17 15.1881C74.5529 15.9345 75.1902 16.4231 75.9117 16.4231C76.4547 16.4231 76.95 16.1463 77.3251 15.6911L77.3251 16.4493C77.3251 16.6684 77.3752 16.8845 77.4716 17.0804L77.5209 17.1807C77.6232 17.3887 77.789 17.5574 77.9936 17.6614C78.2443 17.7889 78.435 18.0124 78.5236 18.2829L78.666 18.7172C78.714 18.8638 78.785 19.0015 78.8761 19.1251L79.6533 20.1789C79.7495 20.3093 79.8667 20.422 80 20.5124L80.5116 20.8592C80.7262 21.0047 81.001 21.0221 81.2318 20.9048L81.3239 20.858C81.7595 20.6365 82.2721 20.9586 82.2721 21.4539L82.2721 22.1926C82.2721 22.4157 82.3232 22.6358 82.4213 22.8354L82.4576 22.9092C82.5676 23.1329 82.7331 23.3236 82.9378 23.4623L83.3294 23.7278C83.5616 23.8853 83.8344 23.9693 84.1135 23.9693L84.5162 23.9693C84.6681 23.9693 84.8191 23.9443 84.9632 23.8955L85.1031 23.8481C85.5431 23.6989 86.0271 23.7788 86.3981 24.0618L87.0695 24.5739C87.1688 24.6496 87.2774 24.7117 87.3927 24.7585L88.8654 25.3576C88.9455 25.3902 89.0285 25.4153 89.1131 25.4325L90.6154 25.738C90.7067 25.7566 90.7995 25.7659 90.8926 25.7659L92.3454 25.7659C92.461 25.7659 92.5761 25.7515 92.6882 25.723L93.7641 25.4495C93.8762 25.421 93.9913 25.4066 94.1069 25.4066L94.9432 25.4066C95.4158 25.4066 95.8571 25.1664 96.1192 24.7666L96.3287 24.447C96.3804 24.3683 96.4395 24.2949 96.5053 24.228L96.6991 24.0309C96.9642 23.7613 97.1131 23.3958 97.1131 23.0145L97.1131 22.4856C97.1131 22.2797 97.1602 22.0767 97.2507 21.8926C97.3899 21.6095 97.4249 21.2851 97.3494 20.978L97.2871 20.7246C97.1777 20.2796 97.2838 19.8082 97.5725 19.4558L98.7091 18.0688C98.822 17.9311 98.9085 17.7732 98.9642 17.6032L99.1734 16.9651C99.2131 16.8439 99.2685 16.7286 99.3382 16.6223L99.8623 15.8229C99.9139 15.7441 99.9731 15.6707 100.039 15.6038L100.397 15.2399C100.557 15.0772 100.647 14.8565 100.647 14.6264L100.647 14.5212C100.647 14.3585 100.71 14.2025 100.823 14.0874C100.936 13.9724 101 13.8164 101 13.6537L101 13.45C101 13.2784 100.961 13.1092 100.885 12.9557L100.704 12.5871C100.666 12.5103 100.647 12.4257 100.647 12.3399C100.647 12.1934 100.589 12.0528 100.487 11.9492L100.19 11.6465C100.03 11.4838 99.9399 11.2631 99.9399 11.033C99.9399 10.803 99.8501 10.5823 99.6901 10.4196L99.4692 10.1949C99.314 10.0372 99.1971 9.84481 99.1277 9.63312L98.9854 9.1989C98.916 8.98721 98.7991 8.79485 98.6439 8.63707L97.4679 7.44111C97.256 7.22564 97.2035 6.89646 97.3375 6.62391C97.42 6.45597 97.4336 6.26155 97.3752 6.08343L97.1856 5.50489C97.1376 5.35833 97.1131 5.20485 97.1131 5.05036L97.1131 4.44162C97.1131 4.06041 96.9642 3.69481 96.6991 3.42526L96.5053 3.22821C96.4395 3.16128 96.3804 3.0879 96.3287 3.00915L96.1192 2.68961C95.8571 2.28974 95.4158 2.04955 94.9432 2.04955L94.2665 2.04955C94.0471 2.04955 93.8307 1.9976 93.6344 1.89781L92.6887 1.41696C92.5764 1.35982 92.457 1.31818 92.3338 1.29312L91.0298 1.02791C90.8469 0.990695 90.6584 0.990695 90.4755 1.02791L89.1131 1.30499C89.0285 1.32221 88.9455 1.34728 88.8654 1.37988L87.3927 1.97895C87.2774 2.02581 87.1688 2.0879 87.0695 2.16362L86.1826 2.8401C85.9379 3.0267 85.6403 3.12757 85.3345 3.12757L84.1135 3.12757C83.8344 3.12757 83.5616 3.21157 83.3294 3.36897L83.0801 3.53801C82.7875 3.73635 82.5782 4.03846 82.4929 4.38535L82.2946 5.1919C82.2797 5.25281 82.2721 5.31535 82.2721 5.37814C82.2721 5.8777 81.8104 6.24426 81.3338 6.12309L81.1205 6.06885C80.9495 6.02538 80.7698 6.03239 80.6026 6.08908L80.2175 6.21964C79.9447 6.31209 79.7062 6.48693 79.5337 6.72082L78.9098 7.56677C78.7967 7.72003 78.715 7.89472 78.6693 8.08058L78.4963 8.78438C78.4257 9.07124 78.2355 9.31244 77.9754 9.44468C77.7826 9.5427 77.6263 9.70164 77.53 9.89767L77.4716 10.0164C77.3752 10.2123 77.3251 10.4284 77.3251 10.6475ZM93.3277 17.3219C93.1877 17.7628 93.2591 18.3096 93.6996 18.428C94.0612 18.5252 94.4609 18.5792 94.8812 18.5792C96.5041 18.5792 97.8198 17.7748 97.8198 16.7825C97.8198 15.7902 96.5041 14.9858 94.8812 14.9858C94.4609 14.9858 94.0612 15.0397 93.6996 15.1369C93.2591 15.2553 93.1877 15.8021 93.3277 16.2431C93.3828 16.4164 93.4119 16.597 93.4119 16.7825C93.4119 16.9679 93.3828 17.1485 93.3277 17.3219ZM93.6996 11.9599C93.2591 11.8415 93.1877 11.2947 93.3277 10.8538C93.3828 10.6804 93.4119 10.4998 93.4119 10.3143C93.4119 10.1289 93.3828 9.94832 93.3277 9.77495C93.1877 9.334 93.2591 8.78721 93.6996 8.6688C94.0612 8.57161 94.4609 8.51766 94.8812 8.51766C96.5041 8.51766 97.8198 9.32207 97.8198 10.3144C97.8198 11.3066 96.5041 12.1111 94.8812 12.1111C94.4609 12.1111 94.0612 12.0571 93.6996 11.9599ZM84.5544 10.5088L85.1706 9.88218C85.5398 9.50665 86.1184 9.44839 86.553 9.74298C86.7557 9.88041 86.9076 10.0826 86.9846 10.3177L87.2191 11.033L87.5184 12.5548C87.553 12.7308 87.655 12.8857 87.8018 12.9852C88.197 13.2532 88.197 13.8437 87.8018 14.1116L87.7698 14.1333C87.6419 14.22 87.546 14.3476 87.4974 14.4959L87.2191 15.3451L86.9749 16.3383C86.9047 16.6241 86.7322 16.873 86.4911 17.0364C86.0804 17.3149 85.5415 17.2997 85.1466 16.9985L84.4942 16.5009C84.4263 16.4492 84.3541 16.4037 84.2782 16.3652L83.8354 16.14C83.7389 16.091 83.628 16.0803 83.5242 16.11C83.1414 16.2197 82.8278 15.7905 83.0416 15.4494L83.2795 15.0697C83.3144 15.0141 83.3402 14.9532 83.3559 14.8892L83.5998 13.897C83.6561 13.6681 83.6561 13.4287 83.5998 13.1998L83.3559 12.2076C83.3402 12.1437 83.3144 12.0827 83.2795 12.0271L83.0416 11.6474C82.8278 11.3063 83.1414 10.8771 83.5242 10.9868C83.628 11.0166 83.7389 11.0059 83.8354 10.9568L84.1871 10.778C84.323 10.7089 84.447 10.618 84.5544 10.5088ZM95.6996 13.5484L95.3463 13.1891L93.2261 12.8297L92.1661 12.8297L91.4594 13.5484L92.1661 14.2671L93.2261 14.2671L95.3463 13.9078L95.6996 13.5484ZM90.0459 7.0803L90.3993 7.43964L91.106 6.72096L92.1661 6.72096L93.2261 7.79898L93.9329 7.0803L94.2862 5.64295L93.5795 4.56493L92.5194 3.48691L91.106 3.12757L89.6926 3.48691L88.9859 3.84625L88.2792 4.56493L88.9859 4.92427L89.3392 6.00229L89.3392 7.0803L90.0459 7.0803ZM90.3993 19.6572L90.0459 20.0165L89.3392 20.0165L89.3392 21.0945L88.9859 22.1726L88.2792 22.5319L88.9859 23.2506L89.6926 23.6099L91.106 23.9693L92.5194 23.6099L93.5795 22.5319L94.2862 21.4539L93.9329 20.0165L93.2261 19.2978L92.1661 20.3759L91.106 20.3759L90.3993 19.6572ZM85.7653 6.88505L85.4998 7.9652C85.4687 8.09157 85.4045 8.20697 85.3139 8.29908L84.5102 9.11637C84.4326 9.19527 84.338 9.25471 84.234 9.28999L83.4166 9.56705C83.3607 9.58601 83.3021 9.59568 83.2431 9.59568L82.7718 9.59568C82.457 9.59568 82.2993 9.20862 82.5219 8.98225C82.5882 8.91486 82.6254 8.82346 82.6254 8.72816L82.6254 7.26577C82.6254 7.14702 82.6718 7.03313 82.7544 6.94916C82.8884 6.81288 83.0931 6.7791 83.2626 6.86529L83.5363 7.00443C83.6344 7.05433 83.7426 7.0803 83.8523 7.0803L84.0995 7.0803C84.2869 7.0803 84.4667 7.00458 84.5992 6.86981L85.0112 6.45085C85.2282 6.23017 85.594 6.29054 85.7313 6.56968C85.7793 6.6673 85.7913 6.77917 85.7653 6.88505ZM85.4998 19.491L85.7653 20.5711C85.7913 20.677 85.7793 20.7889 85.7313 20.8865C85.594 21.1656 85.2282 21.226 85.0112 21.0053L84.5992 20.5864C84.4667 20.4516 84.2869 20.3759 84.0995 20.3759L83.8523 20.3759C83.7426 20.3759 83.6344 20.4018 83.5363 20.4517L83.2626 20.5909C83.0931 20.6771 82.8884 20.6433 82.7544 20.507C82.6718 20.423 82.6254 20.3091 82.6254 20.1904L82.6254 18.728C82.6254 18.6327 82.5882 18.5413 82.5219 18.4739C82.2993 18.2475 82.457 17.8605 82.7718 17.8605L83.2431 17.8605C83.3021 17.8605 83.3607 17.8702 83.4166 17.8891L84.234 18.1662C84.338 18.2015 84.4326 18.2609 84.5102 18.3398L85.3139 19.1571C85.4045 19.2492 85.4687 19.3646 85.4998 19.491ZM91.2095 9.34159L91.106 9.23634C90.9109 9.03788 90.5944 9.03788 90.3993 9.23634L90.2529 9.38518C90.1204 9.51996 89.9406 9.59568 89.7532 9.59568L89.569 9.59568C89.4219 9.59568 89.2808 9.53624 89.1767 9.43045L89.0628 9.31454C88.8511 9.09929 88.4943 9.15817 88.3604 9.43045C88.3084 9.53624 88.2998 9.65872 88.3366 9.77093L88.6026 10.5824C88.6224 10.643 88.6502 10.7006 88.685 10.7538L89.1432 11.4527C89.2657 11.6395 89.4718 11.7517 89.6926 11.7517L90.4599 11.7517C90.6474 11.7517 90.8271 11.676 90.9596 11.5412L91.2095 11.2871C91.3475 11.1468 91.3475 10.9193 91.2095 10.7789C91.1432 10.7116 91.106 10.6202 91.106 10.5249L91.106 10.1039C91.106 10.0086 91.1432 9.91716 91.2095 9.84977C91.3475 9.70944 91.3475 9.48192 91.2095 9.34159ZM91.106 18.2198L91.2095 18.1146C91.3475 17.9742 91.3475 17.7467 91.2095 17.6064C91.1432 17.539 91.106 17.4476 91.106 17.3523L91.106 16.9313C91.106 16.836 91.1432 16.7446 91.2095 16.6772C91.3475 16.5369 91.3475 16.3094 91.2095 16.169L90.9596 15.9149C90.8271 15.7802 90.6474 15.7044 90.4599 15.7044L89.6926 15.7044C89.4718 15.7044 89.2657 15.8166 89.1432 16.0034L88.685 16.7024C88.6502 16.7555 88.6224 16.8132 88.6026 16.8738L88.3366 17.6852C88.2998 17.7974 88.3084 17.9199 88.3604 18.0257C88.4943 18.298 88.8511 18.3569 89.0628 18.1416L89.1767 18.0257C89.2808 17.9199 89.4219 17.8605 89.569 17.8605L89.7532 17.8605C89.9406 17.8605 90.1204 17.9362 90.2529 18.071L90.3993 18.2198C90.5944 18.4183 90.9109 18.4183 91.106 18.2198ZM10.6756 15.7893C10.6893 15.7614 10.6984 15.7329 10.7033 15.7044L13.9115 15.7044C13.9164 15.7329 13.9255 15.7614 13.9392 15.7893C14.0138 15.9409 13.9533 16.1252 13.8042 16.201L13.6374 16.2859C13.472 16.37 13.3675 16.5419 13.3675 16.73L13.3675 17.6908C13.3675 17.8024 13.3419 17.9124 13.2929 18.0122L13.0654 18.4748C13.0314 18.5439 12.9867 18.607 12.933 18.6616L12.8677 18.728C12.7352 18.8628 12.5555 18.9385 12.368 18.9385L12.2468 18.9385C12.0593 18.9385 11.8796 18.8628 11.747 18.728L11.6818 18.6616C11.6281 18.607 11.5834 18.5439 11.5494 18.4748L11.3219 18.0122C11.2729 17.9124 11.2473 17.8024 11.2473 17.6908L11.2473 16.73C11.2473 16.5419 11.1428 16.37 10.9774 16.2859L10.8106 16.201C10.6615 16.1252 10.601 15.9409 10.6756 15.7893ZM16.0891 20.74L17.4165 21.2462C17.7329 21.3668 17.921 21.6983 17.8655 22.0373L17.6581 23.3028C17.626 23.4987 17.5155 23.6724 17.353 23.7826L15.5559 25.0009C15.5114 25.0311 15.459 25.0473 15.4055 25.0473C15.2557 25.0473 15.1343 24.9238 15.1343 24.7714L15.1343 21.4129C15.1343 20.9111 15.6271 20.5638 16.0891 20.74ZM6.7589 21.279L8.17233 20.74C8.63434 20.5638 9.12718 20.9111 9.12718 21.4129L9.12718 24.4956C9.12718 24.8003 8.88432 25.0473 8.58472 25.0473C8.47762 25.0473 8.37291 25.015 8.28381 24.9546L6.61503 23.8233C6.41842 23.69 6.30033 23.4656 6.30033 23.2253L6.30033 21.9519C6.30033 21.6523 6.48307 21.3842 6.7589 21.279ZM11.954 20.0165L12.3074 20.0165C12.6977 20.0165 13.0141 20.3383 13.0141 20.7352L13.0141 22.5319L12.7856 22.1833C12.5382 21.8059 12.0132 21.7531 11.6978 22.0738L11.2473 22.5319L11.2473 20.7352C11.2473 20.3383 11.5637 20.0165 11.954 20.0165Z" fill="#131314" stroke="#131314"/>
</svg>
