<svg width="565" height="420" viewBox="0 0 565 420" fill="none" xmlns="http://www.w3.org/2000/svg">
<circle cx="143" cy="275" r="143" fill="#131314"/>
<circle cx="286" cy="143" r="143" fill="#14B830"/>
<circle cx="422" cy="277" r="143" fill="#D9D9D9" fill-opacity="0.5"/>
<ellipse cx="302" cy="196.5" rx="53" ry="81.5" fill="white" fill-opacity="0.75"/>
<ellipse cx="283" cy="178" rx="72" ry="68" fill="black" fill-opacity="0.25"/>
<ellipse cx="278" cy="250" rx="44" ry="72" fill="#D9D9D9" fill-opacity="0.5"/>
<ellipse cx="235" cy="202.5" rx="14" ry="21.5" fill="#D9D9D9"/>
<line x1="335.296" y1="160.244" x2="356.296" y2="196.244" stroke="#131314" stroke-width="3"/>
<line x1="295.334" y1="151.538" x2="330.429" y2="159.559" stroke="#131314" stroke-width="3"/>
<line x1="345.334" y1="164.538" x2="380.429" y2="172.559" stroke="#131314" stroke-width="3"/>
<line x1="338.619" y1="268.576" x2="300.839" y2="264.491" stroke="#131314" stroke-width="3"/>
<line x1="344.624" y1="229.468" x2="307.839" y2="225.491" stroke="#131314" stroke-width="3"/>
<line x1="248" y1="223.995" x2="248" y2="173.995" stroke="#131314" stroke-width="3"/>
<line x1="213.209" y1="179.112" x2="296.086" y2="291.945" stroke="#131314" stroke-width="3"/>
<line x1="214.556" y1="128.567" x2="328.228" y2="93.359" stroke="#131314" stroke-width="3"/>
<line x1="289.774" y1="104.715" x2="358.285" y2="146.023" stroke="#131314" stroke-width="3"/>
<line x1="259.963" y1="170.85" x2="302.901" y2="206.798" stroke="#131314" stroke-width="3"/>
<line x1="301.657" y1="264.536" x2="234.245" y2="225.296" stroke="#131314" stroke-width="3"/>
<line x1="321.488" y1="274.81" x2="327.566" y2="322.424" stroke="#131314" stroke-width="3"/>
<line x1="244.451" y1="236.382" x2="229.435" y2="293.439" stroke="#131314" stroke-width="3"/>
<line x1="365.423" y1="184.474" x2="337.279" y2="268.907" stroke="#131314" stroke-width="3"/>
<line x1="215.499" y1="128.038" x2="213.5" y2="208.013" stroke="#131314" stroke-width="3"/>
<line x1="243.658" y1="286.348" x2="112.477" y2="350.437" stroke="#131314" stroke-width="3"/>
<line x1="323.532" y1="285.597" x2="418.913" y2="321.742" stroke="#131314" stroke-width="3"/>
</svg>
