<svg width="31" height="31" viewBox="0 0 31 31" fill="none" xmlns="http://www.w3.org/2000/svg">
<path d="M16.1889 25.8333C16.1889 26.2138 15.8805 26.5222 15.5 26.5222C15.1195 26.5222 14.8111 26.2138 14.8111 25.8333C14.8111 25.4529 15.1195 25.1444 15.5 25.1444C15.8805 25.1444 16.1889 25.4529 16.1889 25.8333Z" fill="#131314"/>
<path d="M7.23333 9.98889C7.6138 9.98889 7.92222 9.68046 7.92222 9.3C7.92222 8.91954 7.6138 8.61111 7.23333 8.61111C6.85287 8.61111 6.54444 8.91954 6.54444 9.3C6.54444 9.68046 6.85287 9.98889 7.23333 9.98889Z" fill="#131314"/>
<path d="M17.1921 24.6464C21.5204 23.8508 24.8 20.0584 24.8 15.5C24.8 13.1998 23.9649 11.0946 22.5814 9.47113L21.114 10.9385C22.1264 12.183 22.7333 13.7706 22.7333 15.5C22.7333 16.6945 22.4438 17.8213 21.9311 18.8142C22.0044 19.016 22.0444 19.2339 22.0444 19.4611C22.0444 20.5074 21.1963 21.3556 20.15 21.3556C20.0281 21.3556 19.9088 21.344 19.7933 21.322C18.5924 22.209 17.1075 22.7333 15.5 22.7333C11.5051 22.7333 8.26667 19.4949 8.26667 15.5C8.26667 11.5051 11.5051 8.26667 15.5 8.26667C17.2693 8.26667 18.8903 8.90193 20.1472 9.95682L21.6129 8.49111C19.9784 7.06431 17.8401 6.2 15.5 6.2C13.069 6.2 10.8559 7.13274 9.19894 8.65985C9.26454 8.86141 9.3 9.07657 9.3 9.3C9.3 10.4414 8.37472 11.3667 7.23333 11.3667L7.21644 11.3666C7.20834 11.3665 7.20026 11.3664 7.19219 11.3663C7.18385 11.3661 7.17553 11.3659 7.16722 11.3656C6.54812 12.611 6.2 14.0149 6.2 15.5C6.2 20.0584 9.47958 23.8508 13.8079 24.6464C14.1818 24.1144 14.8003 23.7667 15.5 23.7667C16.1997 23.7667 16.8182 24.1144 17.1921 24.6464Z" fill="#131314"/>
<path d="M15.5 9.98889C16.7817 9.98889 17.9611 10.4264 18.8972 11.1602L15.8816 14.1758C15.7604 14.1409 15.6324 14.1222 15.5 14.1222C14.7391 14.1222 14.1222 14.7391 14.1222 15.5C14.1222 16.2609 14.7391 16.8778 15.5 16.8778C16.2609 16.8778 16.8778 16.2609 16.8778 15.5C16.8778 15.3856 16.8638 15.2745 16.8376 15.1683L19.8675 12.1384C20.5846 13.0687 21.0111 14.2345 21.0111 15.5C21.0111 16.2505 20.8611 16.9659 20.5895 17.6179C20.4484 17.5844 20.3013 17.5667 20.15 17.5667C19.1037 17.5667 18.2556 18.4148 18.2556 19.4611C18.2556 19.7184 18.3069 19.9638 18.3998 20.1874C17.5575 20.7096 16.5639 21.0111 15.5 21.0111C12.4563 21.0111 9.98889 18.5437 9.98889 15.5C9.98889 12.4563 12.4563 9.98889 15.5 9.98889Z" fill="#131314"/>
<path fill-rule="evenodd" clip-rule="evenodd" d="M15.5 31C24.0604 31 31 24.0604 31 15.5C31 6.93959 24.0604 0 15.5 0C6.93959 0 0 6.93959 0 15.5C0 24.0604 6.93959 31 15.5 31ZM13.496 26.3405C8.36541 25.3981 4.47778 20.9031 4.47778 15.5C4.47778 13.739 4.89073 12.0745 5.62508 10.598C5.33837 10.2433 5.16667 9.79168 5.16667 9.3C5.16667 8.15861 6.09195 7.23333 7.23333 7.23333C7.51644 7.23333 7.78625 7.29026 8.03195 7.39329C9.99573 5.58329 12.6188 4.47778 15.5 4.47778C21.5874 4.47778 26.5222 9.4126 26.5222 15.5C26.5222 20.9031 22.6346 25.3981 17.504 26.3405C17.2779 27.2367 16.4664 27.9 15.5 27.9C14.5336 27.9 13.7221 27.2367 13.496 26.3405Z" fill="#131314"/>
</svg>
